# xmcd CD database file
#
# Track frame offsets:
#	182
#	45780
#	83785
#	120447
#	152112
#	192440
#	224557
#
# Disc length: 3640 seconds
#
# Revision: 6
# Processed by: cddbd v1.5.2PL0 Copyright (c) Steve Scherf et al.
# Submitted via: CDex 1.51
#
DISCID=550e3607
DTITLE=Keith Jarrett - Tribute, cD 02
DYEAR=1989
DGENRE=Jazz
TTITLE0=Just In Time
TTITLE1=Smoke Gets In Your Eyes
TTITLE2=All Of You
TTITLE3=Ballad Of The Sad Young Men
TTITLE4=All The Things You Are
TTITLE5=It's Easy To Remeber
TTITLE6=U Dance
EXTD=YEAR: 1989
EXTT0=
EXTT1=
EXTT2=
EXTT3=
EXTT4=
EXTT5=
EXTT6=
PLAYORDER=
